<?xml version="1.0" standalone="no"?>
<!DOCTYPE svg PUBLIC "-//W3C//DTD SVG 20010904//EN"
 "http://www.w3.org/TR/2001/REC-SVG-20010904/DTD/svg10.dtd">
<svg version="1.0" xmlns="http://www.w3.org/2000/svg"
 width="1867.000000pt" height="354.000000pt" viewBox="0 0 1867.000000 354.000000"
 preserveAspectRatio="xMidYMid meet">

<g transform="translate(0.000000,354.000000) scale(0.100000,-0.100000)"
fill="#000000" stroke="none">
<path d="M18 3533 c-17 -4 -18 -97 -18 -1769 l0 -1764 9335 0 9335 0 0 1756 0
1755 -35 15 c-30 12 -1232 14 -9317 13 -5106 -1 -9291 -3 -9300 -6z m18590
-1776 l2 -1707 -9287 0 -9288 0 1 1703 c0 936 1 1705 2 1710 1 4 4179 6 9285
5 l9282 -3 3 -1708z"/>
<path d="M5474 3313 l-5281 -3 -6 -593 c-4 -325 -7 -1025 -7 -1554 l0 -963
5258 1 c3828 0 5250 3 5232 11 -120 53 -239 116 -310 163 -383 257 -634 644
-716 1100 -24 134 -24 404 -1 530 68 368 217 655 469 902 104 102 164 152 267
218 84 55 255 139 328 162 29 9 53 20 53 25 0 4 -1 7 -2 6 -2 -2 -2379 -4
-5284 -5z m-4660 -855 c9 -79 25 -233 36 -343 30 -290 90 -829 94 -832 2 -2 6
31 10 74 4 43 22 218 41 388 19 171 46 423 60 560 14 138 28 260 30 273 5 22
7 22 195 22 104 0 191 -3 193 -7 3 -5 -1 -48 -9 -98 -7 -49 -20 -146 -29 -215
-14 -116 -53 -405 -154 -1154 -23 -165 -45 -304 -49 -308 -5 -5 -138 -7 -297
-6 l-290 3 -12 85 c-6 47 -23 171 -37 275 -35 266 -100 745 -151 1105 -23 168
-41 308 -38 313 2 4 91 7 197 7 l193 0 17 -142z m1456 -28 l0 -170 -60 0 -60
0 0 -550 0 -550 60 0 60 0 -2 -172 -3 -173 -307 -3 -308 -2 0 175 0 175 60 0
60 0 -2 548 -3 547 -62 3 -63 3 0 163 c0 89 3 166 7 169 3 4 145 7 315 7 l308
0 0 -170z m1240 -5 l0 -175 -165 0 -165 0 -2 -717 -3 -718 -185 0 -185 0 -3
718 -2 717 -175 0 -175 0 0 175 0 175 530 0 530 0 0 -175z m1238 -717 l-3
-893 -185 0 -185 0 -3 293 -2 292 -155 0 -155 0 -2 -292 -3 -293 -185 0 -185
0 -3 750 -3 750 148 142 148 142 388 1 387 0 -2 -892z m674 690 c31 -112 85
-305 120 -430 35 -126 65 -228 68 -228 3 0 29 89 59 198 30 108 80 289 111
402 31 113 60 217 64 233 l6 27 220 0 220 0 -2 -892 -3 -893 -170 0 -170 0 -8
215 c-4 118 -6 353 -5 523 2 169 0 300 -4 290 -5 -10 -62 -236 -129 -502 -66
-266 -125 -495 -130 -507 -7 -21 -15 -24 -59 -24 -45 0 -52 3 -61 27 -5 14
-67 254 -137 532 l-127 506 -5 -530 -5 -530 -170 0 -170 0 -3 893 -2 892 218
0 218 0 56 -202z m1696 30 l2 -168 -65 0 -65 0 0 -550 0 -549 63 -3 62 -3 -4
-165 c-2 -91 -6 -168 -10 -173 -4 -4 -142 -6 -307 -5 l-299 3 -3 172 -2 173
60 0 60 0 0 550 0 550 -60 0 -60 0 0 170 0 170 313 -2 312 -3 3 -167z m565
130 c8 -24 47 -133 87 -243 39 -110 110 -310 157 -445 47 -135 89 -249 94
-255 5 -5 9 201 9 488 l0 497 175 0 175 0 -2 -892 -3 -893 -184 0 -184 0 -54
150 c-30 83 -71 200 -93 260 -21 61 -69 193 -105 295 -37 102 -75 210 -85 240
l-19 55 -3 -500 -3 -500 -171 -3 -171 -2 -6 157 c-9 208 -9 1618 0 1626 3 4
88 7 189 7 l182 0 15 -42z m1965 -136 c2 -162 0 -183 -29 -325 -30 -139 -33
-168 -33 -342 -1 -191 5 -251 45 -425 17 -73 19 -116 17 -300 l-3 -215 -185 0
-185 0 -3 293 -2 292 -155 0 -155 0 -2 -292 -3 -293 -187 -3 -188 -2 0 752 0
753 142 142 143 143 390 -2 390 -3 3 -173z"/>
<path d="M4062 1998 l3 -253 153 -3 152 -3 0 256 0 255 -155 0 -155 0 2 -252z"/>
<path d="M8960 1995 l0 -256 153 3 152 3 3 253 2 252 -155 0 -155 0 0 -255z"/>
<path d="M11770 3309 c0 -3 24 -13 54 -22 83 -27 261 -118 361 -185 540 -364
816 -1026 694 -1661 -88 -454 -348 -833 -744 -1086 -64 -41 -231 -125 -285
-144 -18 -6 -31 -12 -29 -14 2 -1 1497 -1 3322 1 l3317 2 0 1555 0 1555 -3345
2 c-1840 2 -3345 0 -3345 -3z m4960 -583 c149 -121 176 -140 179 -122 1 12 18
75 36 141 l33 120 492 0 493 0 213 -329 214 -329 0 -443 0 -443 -32 -118 -31
-118 -226 -227 -226 -228 -440 0 -440 0 -30 -113 -30 -112 -360 0 -360 0 -3
113 -3 112 -1724 0 -1725 0 0 161 0 161 39 87 c50 111 95 254 117 367 9 49 20
98 25 109 4 11 8 -103 8 -253 l1 -272 243 2 242 3 3 668 2 667 95 0 95 0 0
-670 0 -670 245 0 245 0 0 880 0 880 -397 0 -398 0 -187 -187 -188 -186 0
-216 c0 -119 -4 -209 -9 -201 -4 8 -13 51 -20 95 -7 44 -32 140 -57 214 -24
73 -44 137 -44 142 0 4 102 109 228 233 l227 225 1640 0 1640 0 175 -143z"/>
<path d="M14332 1873 l3 -878 583 -3 582 -2 0 210 0 210 -340 0 -340 0 0 165
0 165 130 0 130 0 0 150 0 150 -130 0 -130 0 0 145 0 145 340 0 340 0 0 210 0
210 -585 0 -585 0 2 -877z"/>
<path d="M15715 1872 l0 -877 243 -3 242 -2 0 360 c0 198 4 360 8 360 5 0 50
-42 100 -94 l92 -93 0 -382 0 -381 245 0 245 0 0 407 0 408 -142 142 -143 143
106 0 c59 0 121 3 138 6 l31 7 -1 291 0 291 -184 148 -185 147 -397 0 -398 0
0 -878z m685 313 l0 -145 -100 0 -100 0 0 145 0 145 100 0 100 0 0 -145z"/>
<path d="M17100 1870 l0 -880 398 0 397 0 188 188 187 187 0 404 0 403 -187
289 -187 289 -398 0 -398 0 0 -880z m680 0 l0 -460 -95 0 -95 0 0 460 0 460
95 0 95 0 0 -460z"/>
<path d="M15200 1797 c0 -128 -3 -178 -13 -192 -8 -11 -22 -32 -32 -47 l-17
-28 196 0 196 0 0 220 0 220 -165 0 -165 0 0 -173z"/>
<path d="M10750 3089 c-139 -19 -289 -98 -389 -205 -68 -72 -142 -212 -160
-303 -15 -70 -15 -223 -1 -284 24 -107 25 -110 391 -737 75 -129 216 -374 313
-544 218 -380 217 -378 285 -450 91 -96 208 -165 326 -195 27 -7 54 -16 60
-20 54 -41 279 -40 383 2 175 71 319 252 336 422 2 22 9 64 15 94 25 124 5
302 -48 416 -15 33 -53 103 -83 155 -272 470 -301 520 -603 1030 -215 365
-211 358 -254 403 -87 93 -234 182 -338 206 -66 14 -167 19 -233 10z m-214
-701 c65 -57 85 -149 42 -195 -45 -49 -125 -16 -168 68 -60 118 32 210 126
127z m141 -350 c88 -94 303 -429 407 -635 30 -60 32 -61 141 -38 208 43 401
207 476 404 29 76 51 207 45 259 -3 23 -2 42 2 42 4 -1 53 -80 109 -178 55
-97 157 -274 226 -392 154 -268 168 -303 174 -440 8 -164 -28 -284 -121 -407
-119 -157 -304 -241 -511 -230 -183 9 -337 92 -450 242 -29 38 -465 785 -465
796 0 4 33 -9 73 -31 69 -37 177 -75 177 -63 0 3 -17 33 -39 67 -104 165 -277
509 -296 588 -7 27 -1 48 14 48 4 0 21 -15 38 -32z"/>
</g>
</svg>
